<?xml version="1.0" standalone="no"?>
<!DOCTYPE svg PUBLIC "-//W3C//DTD SVG 20010904//EN"
 "http://www.w3.org/TR/2001/REC-SVG-20010904/DTD/svg10.dtd">
<svg version="1.0" xmlns="http://www.w3.org/2000/svg"
 width="500.000000pt" height="500.000000pt" viewBox="0 0 500.000000 500.000000"
 preserveAspectRatio="xMidYMid meet">
<metadata>
Created by potrace 1.14, written by Peter Selinger 2001-2017
</metadata>
<g transform="translate(0.000000,500.000000) scale(0.100000,-0.100000)"
fill="#000000" stroke="none">
<path d="M2405 4044 c-226 -32 -375 -74 -534 -150 -235 -111 -428 -269 -587
-481 -267 -353 -363 -761 -285 -1213 59 -341 222 -635 485 -875 104 -94 176
-144 328 -224 241 -128 454 -181 725 -181 263 0 471 51 711 172 379 192 667
540 786 949 56 196 71 523 32 739 -30 167 -98 343 -197 508 -63 105 -69 112
-172 230 -221 252 -537 433 -875 502 -99 20 -347 34 -417 24z m379 -618 c146
-40 337 -147 445 -249 272 -259 378 -658 266 -1000 -29 -89 -72 -195 -91 -221
-8 -11 -14 -23 -14 -27 0 -3 43 -39 95 -80 52 -41 95 -78 95 -84 0 -20 -163
-190 -243 -254 -91 -74 -183 -136 -218 -150 -13 -5 -53 -22 -89 -39 -82 -37
-223 -78 -320 -93 -121 -18 -355 -6 -472 24 -199 52 -372 143 -532 278 -94 80
-221 221 -214 238 5 12 93 86 144 122 25 17 44 34 42 37 -2 4 -24 50 -50 102
-63 127 -88 233 -95 395 -4 112 -2 146 20 250 60 292 253 533 542 677 105 52
141 65 239 84 95 18 368 12 450 -10z"/>
<path d="M2543 3250 c-77 -18 -123 -75 -123 -155 0 -156 197 -213 292 -84 49
66 24 181 -49 217 -50 25 -81 31 -120 22z"/>
<path d="M2155 2921 c-50 -22 -121 -101 -136 -150 -6 -22 -9 -109 -7 -222 l3
-186 29 -37 c54 -71 146 -88 197 -37 l29 29 0 237 c0 261 1 268 64 323 20 17
36 33 36 36 0 2 -14 9 -31 15 -49 17 -139 13 -184 -8z"/>
<path d="M2431 2833 c-50 -25 -61 -62 -61 -208 0 -69 2 -125 4 -125 3 0 32 18
65 40 33 22 64 40 68 40 4 -1 31 -30 58 -67 100 -131 71 -117 257 -123 l163
-5 3 -404 c1 -263 -1 -408 -8 -415 -27 -27 4 -86 47 -86 38 0 72 67 43 85 -6
4 -10 153 -10 415 0 406 0 409 21 415 11 4 27 22 35 41 12 29 12 39 0 68 -8
19 -24 39 -35 45 -18 10 -21 22 -23 129 l-3 117 -30 0 -30 0 -3 -117 -3 -118
-117 0 -118 0 -73 93 c-41 50 -80 107 -88 124 -25 61 -101 87 -162 56z"/>
<path d="M2430 2416 c-51 -30 -55 -36 -61 -78 -7 -49 -21 -81 -49 -113 -11
-13 -19 -44 -23 -91 -11 -146 -77 -278 -214 -434 -46 -52 -86 -105 -89 -117
-9 -33 17 -76 59 -96 36 -18 38 -18 71 0 40 21 143 132 208 223 53 75 110 199
135 294 10 36 22 66 26 66 5 0 38 -29 73 -64 88 -88 125 -168 125 -268 0 -40
-7 -106 -15 -146 -22 -102 -20 -119 13 -153 48 -47 113 -34 145 29 27 55 49
202 43 302 -8 160 -53 248 -199 391 -87 85 -88 87 -88 135 0 45 -5 53 -51 102
-28 28 -51 52 -52 52 -1 -1 -27 -16 -57 -34z"/>
</g>
</svg>
